# xmcd
#
# Track frame offsets:
#       150
#       12827
#       29032
#       44457
#       56462
#       70837
#       91647
#       106330
#       119185
#       133335
#       153300
#       169252
#       186425
#       201055
#       213890
#       235835
#       255800
#       269267
#       289172
#       301095
#       318425
#       332732
#
# Disc length: 4637 seconds
#
# Revision: 2
# Processed by: cddbd v1.5.1PL0 Copyright (c) Steve Scherf et al.
# Submitted via: MusiCat 1.1
#
DISCID=3c121b16
DTITLE=Motorhead - No Remorse
DYEAR=1994
DGENRE=
TTITLE0=Ace of spades
TTITLE1=Motorhead
TTITLE2=Jailbait
TTITLE3=Stay clean
TTITLE4=Too late, too late
TTITLE5=Killed by death
TTITLE6=Bomber
TTITLE7=Iron fist
TTITLE8=Shine
TTITLE9=Dancing on your grave
TTITLE10=Metropolis
TTITLE11=Snaggletooth
TTITLE12=Overkill
TTITLE13=Please dont touch
TTITLE14=Stone dead forever
TTITLE15=Like a nightmare
TTITLE16=Emergency
TTITLE17=Steal your face
TTITLE18=No Class
TTITLE19=Iron Horse
TTITLE20=We are the roadcrew
TTITLE21=Locomotive
EXTD=Castle\nPCD 10024\nThis is possibly an Australian reissue
EXTT0=
EXTT1=
EXTT2=
EXTT3=
EXTT4=
EXTT5=
EXTT6=
EXTT7=
EXTT8=
EXTT9=
EXTT10=
EXTT11=
EXTT12=
EXTT13=
EXTT14=
EXTT15=
EXTT16=
EXTT17=
EXTT18=
EXTT19=
EXTT20=
EXTT21=
PLAYORDER=
